<svg aria-hidden="true" style="position:absolute;width:0;height:0" xmlns="http://www.w3.org/2000/svg" overflow="hidden"><defs><symbol id="icon-svg-basket" viewBox="0 0 38 32"><path d="M37.815 7.814h.002l-5.28 11.733c-.26.578-.823.99-1.487 1.035l-15.206 1.013.879 2.509H33.28a3.522 3.522 0 010 7.042 3.521 3.521 0 01-3.52-3.52H13.333a3.521 3.521 0 01-3.52 3.52 3.521 3.521 0 010-7.042h3.181L6.219 4.746H2.187a1.76 1.76 0 010-3.52h5.28c.768 0 1.414.495 1.655 1.18l.006-.002 1.024 2.929h26.061c.973 0 1.76.787 1.76 1.76 0 .256-.058.499-.158.721zM11.386 8.853l3.253 9.295 15.123-1.009 3.729-8.286H11.385z"/></symbol><symbol id="icon-svg-book" viewBox="0 0 64 32"><path d="M6.627 5.523L3.54 6.8a.317.317 0 01-.254 0L.199 5.523A.32.32 0 010 5.227V.32A.32.32 0 01.442.024l.003.001 2.968 1.228L6.381.025l.003-.001h.001a.32.32 0 01.442.296v4.907a.32.32 0 01-.199.296zM3.093 1.814L.64.799v4.214l2.453 1.015V1.814zM6.187.799L3.734 1.814v4.214l2.453-1.015V.799zm-1.946 1.47l1.173-.533a.32.32 0 11.264.582l-1.173.533a.32.32 0 11-.264-.582zm0 1.173l1.173-.533a.32.32 0 11.264.582l-1.173.533a.32.32 0 11-.264-.582zm0 1.173l1.173-.533a.32.32 0 11.264.582l-1.173.533a.32.32 0 11-.264-.582zM1.28 1.707c.047 0 .092.01.132.029l1.173.533a.32.32 0 11-.264.582l-1.173-.533a.32.32 0 01.132-.611zm0 1.173c.047 0 .092.01.132.029l1.173.533a.32.32 0 11-.264.582l-1.173-.533a.32.32 0 01.132-.611zm0 1.173c.047 0 .092.01.132.029l1.173.533a.32.32 0 11-.264.582l-1.173-.533a.32.32 0 01.132-.611z"/></symbol><symbol id="icon-svg-clock" viewBox="0 0 64 32"><path d="M6.558 2.027A3.353 3.353 0 004.8.269a1.253 1.253 0 011.758 1.758zm-.051 1.386c0 .822-.323 1.567-.845 2.121l.433.433a.316.316 0 11-.447.447l-.465-.465a3.08 3.08 0 01-1.769.557 3.078 3.078 0 01-1.766-.555l-.461.461a.319.319 0 11-.452-.452l.429-.429a3.082 3.082 0 01-.843-2.118 3.093 3.093 0 016.186 0zM3.413.96a2.453 2.453 0 100 4.905 2.453 2.453 0 000-4.905zm1.28 2.773h-1.28a.32.32 0 01-.32-.32V1.706a.32.32 0 11.64 0v1.386h.96a.32.32 0 110 .64zM.275 2.07A1.28 1.28 0 012.071.275 3.428 3.428 0 00.275 2.071z"/></symbol><symbol id="icon-svg-computer" viewBox="0 0 64 32"><path d="M6.4 4.907H4.373v.533l.427.427v.107H2.027v-.107l.427-.427v-.533H.427a.32.32 0 01-.32-.32V.321a.32.32 0 01.32-.32H6.4a.32.32 0 01.32.32v4.266a.32.32 0 01-.32.32zM6.293.427H.533v3.627h5.76V.427zM2.773 1.92c.088 0 .168.036.226.094l.2.2.627-.627a.319.319 0 11.452.452l-.853.853a.319.319 0 01-.452 0l-.427-.427a.319.319 0 01.226-.546z"/></symbol><symbol id="icon-svg-digital" viewBox="0 0 64 32"><path d="M6.507 6.827H.32a.32.32 0 01-.32-.32V.32A.32.32 0 01.32 0h6.187a.32.32 0 01.32.32v6.187a.32.32 0 01-.32.32zM6.187.64H.64v5.547h5.547V.64zm-4.8.32H2.56a.32.32 0 110 .64H1.6v.96a.32.32 0 11-.64 0V.96h.427zM.96 4.267a.32.32 0 11.64 0v.96h.96a.32.32 0 110 .64H.96v-1.6zM4.267.96h1.6v1.6a.32.32 0 11-.64 0V1.6h-.96a.32.32 0 110-.64zm0 4.267h.96v-.96a.32.32 0 11.64 0v1.6h-1.6a.32.32 0 110-.64z"/></symbol><symbol id="icon-svg-facebook" viewBox="0 0 16 32"><path d="M14.879.245v5.072s-3.738-.373-4.674 1.06c-.512.783-.208 3.077-.254 4.724h4.959c-.418 1.925-.719 3.23-1.028 4.896H9.924v15.759h-6.87V16.059H.131v-4.958h2.891c.148-3.626.203-7.217 2.005-9.046C7.05-.002 8.981.246 14.879.246z"/></symbol><symbol id="icon-svg-home" viewBox="0 0 64 32"><path d="M6.827 3.52a.32.32 0 01-.538.234l-.001.001L3.413.88.544 3.748a.32.32 0 11-.447-.459L3.181.204a.32.32 0 01.231-.098h.02l.014.001h.001a.32.32 0 01.199.1l1.259 1.259v-.294a.32.32 0 11.64 0v.934L6.739 3.3l-.001.001a.32.32 0 01.087.218zm-.64.533v2.24a.32.32 0 01-.32.32h-.64v-2.56h-1.28v2.56H.96a.32.32 0 01-.32-.32v-2.24L3.413 1.28l2.773 2.773zm-3.307 0H1.6v1.28h1.28v-1.28z"/></symbol><symbol id="icon-svg-instagram" viewBox="0 0 32 32"><path d="M27.938 31.754H4.307a3.939 3.939 0 01-3.938-3.94V4.184A3.94 3.94 0 014.307.244h23.631a3.939 3.939 0 013.938 3.94v23.63a3.94 3.94 0 01-3.938 3.94zM16.123 9.894a6.1 6.1 0 00-5.536 3.545h-.006c-.01.022-.017.046-.027.068-.058.129-.108.262-.158.395-.023.065-.049.128-.07.192a5.51 5.51 0 00-.117.418c-.017.065-.037.13-.052.197a6.11 6.11 0 00-.075.453c-.009.062-.021.122-.028.185a6.104 6.104 0 006.069 6.757 6.104 6.104 0 006.069-6.757c-.007-.063-.02-.123-.028-.185a6.11 6.11 0 00-.075-.453c-.015-.066-.034-.132-.052-.197a4.87 4.87 0 00-.117-.418c-.021-.064-.047-.127-.07-.192a6.132 6.132 0 00-.158-.395c-.01-.022-.017-.046-.027-.068h-.006a6.1 6.1 0 00-5.536-3.545zm12.209-4.529c0-.87-.705-1.574-1.575-1.574h-3.151c-.87 0-1.575.704-1.575 1.574v3.152c0 .87.705 1.575 1.575 1.575h3.151c.87 0 1.575-.705 1.575-1.575V5.365zm0 8.074h-2.905c.224.816.345 1.675.345 2.561 0 5.329-4.32 9.648-9.649 9.648S6.474 21.329 6.474 16c0-.886.121-1.745.345-2.561H3.914v13.194c0 .871.705 1.577 1.575 1.577h21.268c.87 0 1.575-.705 1.575-1.577V13.439z"/></symbol><symbol id="icon-svg-line" viewBox="0 0 64 32"><path d="M6.507 6.827H.32a.32.32 0 01-.32-.32V.32A.32.32 0 01.32 0h6.187a.32.32 0 01.32.32v6.187a.32.32 0 01-.32.32zM6.187.64H.64v5.547h5.547V.64zM1.113 3.464l.853-.533a.318.318 0 01.346.008l.001-.002 1.415.943 1.629-1.15a.32.32 0 11.376.517l-1.814 1.28a.317.317 0 01-.371.003l-1.42-.947-.669.418a.32.32 0 11-.348-.537z"/></symbol><symbol id="icon-svg-logo" viewBox="0 0 120 32"><path d="M6.507 6.827H.32a.32.32 0 01-.32-.32V.32A.32.32 0 01.32 0h6.187a.32.32 0 01.32.32v6.187a.32.32 0 01-.32.32zM6.187.64H.64v5.547h5.547V.64zM1.113 3.464l.853-.533a.318.318 0 01.346.008l.001-.002 1.415.943 1.629-1.15a.32.32 0 11.376.517l-1.814 1.28a.317.317 0 01-.371.003l-1.42-.947-.669.418a.32.32 0 11-.348-.537z"/></symbol><symbol id="icon-svg-pinterest" viewBox="0 0 26 32"><path d="M11.14 20.743c-.257 1.025-.517 2.1-.785 3.151-.265 1.036-.498 2.087-.884 3.04-.639 1.577-1.45 3.1-2.514 4.334-.708.821-.558.494-.77.449-.162-.034-.176-.193-.208-.425-.174-1.253-.055-2.702.009-4.11.074-1.605.411-2.939.725-4.272.596-2.54 1.164-5.03 1.766-7.586.039-.17.148-.45.111-.548-.273-.71-.45-1.348-.528-2.094a6.66 6.66 0 01.171-2.391c.341-1.302 1.124-2.455 2.331-2.878.768-.266 1.618-.145 2.135.162.532.319.897.821 1.067 1.534.182.757.048 1.663-.098 2.327-.329 1.5-.761 2.626-1.153 4.074-.194.718-.415 1.455-.233 2.23a2.598 2.598 0 001.042 1.569c.524.382 1.145.59 2 .56 1.511-.053 2.561-1.019 3.263-1.93 1.124-1.458 1.803-3.426 2.062-5.767.082-.756.144-1.623.086-2.479-.108-1.58-.602-2.852-1.387-3.836-.746-.939-1.804-1.685-3.092-2.106-1.276-.416-3.042-.555-4.612-.287-2.853.489-4.864 2.11-6.049 4.348-.62 1.172-1.03 2.519-1.03 4.197 0 1.294.319 2.295.834 3.077.164.247.404.452.564.735.228.401-.034.998-.146 1.433-.135.523-.15 1.246-.761 1.258-.254.005-.571-.18-.785-.299-1.606-.887-2.581-2.502-2.981-4.596-.244-1.273-.242-2.756 0-3.985a11.36 11.36 0 011.153-3.177C3.445 4.605 4.913 3.126 6.7 2.07 8.074 1.258 9.623.688 11.509.413c.625-.091 1.273-.129 1.975-.162a11.87 11.87 0 015.324.997 10.884 10.884 0 013.668 2.641c1.031 1.126 1.782 2.436 2.257 4.073.249.852.49 1.762.49 2.815 0 1.056-.223 1.985-.379 2.914-.583 3.481-2.239 6.327-4.724 7.948a8.206 8.206 0 01-2.159.996c-.821.239-1.758.418-2.761.348-.974-.066-1.771-.331-2.441-.71-.665-.375-1.223-.836-1.62-1.531z"/></symbol><symbol id="icon-svg-search" viewBox="0 0 32 32"><path d="M30.786 26.636a2.933 2.933 0 11-4.149 4.148l-8.597-8.596a11.663 11.663 0 01-5.95 1.634C5.61 23.822.357 18.569.357 12.089S5.61.356 12.09.356s11.733 5.253 11.733 11.733c0 2.174-.603 4.204-1.634 5.95l8.597 8.597zM12.089 3.287c-4.86 0-8.8 3.941-8.8 8.802s3.94 8.8 8.8 8.8c4.86 0 8.8-3.94 8.8-8.8s-3.94-8.802-8.8-8.802z"/></symbol><symbol id="icon-svg-twitter" viewBox="0 0 38 32"><path d="M25.473.874c2.959-.052 4.534 1.025 6.038 2.396 1.277-.109 2.937-.822 3.914-1.319l.95-.519c-.559 1.508-1.315 2.689-2.479 3.587-.259.198-.515.467-.839.593v.019c1.658-.016 3.025-.765 4.324-1.171v.019c-.682 1.084-1.606 2.185-2.591 2.973l-1.193.947c.022 1.756-.026 3.431-.353 4.906-1.908 8.575-6.964 14.396-14.966 16.89-2.874.895-7.517 1.263-10.81.445-1.632-.404-3.107-.863-4.49-1.468-.769-.336-1.482-.7-2.163-1.116l-.671-.407c.742.022 1.612.227 2.441.092.752-.121 1.488-.089 2.182-.24 1.728-.38 3.263-.881 4.583-1.655.641-.375 1.615-.815 2.07-1.356-.858.015-1.636-.185-2.273-.409-2.471-.873-3.91-2.477-4.847-4.887.749.083 2.906.278 3.411-.148-.943-.052-1.849-.598-2.497-1.004-1.988-1.244-3.609-3.329-3.597-6.54l.783.371c.5.211 1.008.323 1.603.447.252.052.755.199 1.044.092h-.038c-.384-.447-1.011-.745-1.398-1.226-1.276-1.584-2.47-4.023-1.715-6.929.192-.737.496-1.388.82-1.988l.038.017c.148.311.48.54.689.8.652.807 1.455 1.533 2.273 2.173 2.79 2.182 5.302 3.523 9.337 4.515 1.024.253 2.207.445 3.43.447-.343-.999-.233-2.618.036-3.585.681-2.435 2.157-4.188 4.324-5.129a9.364 9.364 0 011.696-.521c.311-.036.621-.074.932-.111z"/></symbol></defs></svg>